<?xml version="1.0" encoding="UTF-8"?>
<svg id="_레이어_1" data-name=" 레이어 1" xmlns="http://www.w3.org/2000/svg" viewBox="0 0 1246.87 1316.43">
  <path d="M863.91,1c49.25,0,95.65,7.28,137.9,21.63,43.55,14.79,82.68,37.11,116.3,66.33,50.95,44.28,87.32,102.27,108.1,172.36,9.99,33.7,16.25,70.11,18.59,108.2,2.32,37.75.82,77.48-4.46,118.09-5.28,40.62-14.38,82.47-27.05,124.36-12.8,42.31-29.35,85.04-49.19,127.01-41.29,87.34-96.1,170.61-162.91,247.49-44.93,51.7-94.06,98.95-146.03,140.42-50.38,40.2-103.33,74.92-157.38,103.19-106.75,55.83-215.6,85.34-314.77,85.34-49.26,0-95.67-7.28-137.93-21.63-43.56-14.79-82.69-37.11-116.33-66.33-50.95-44.28-87.32-102.27-108.1-172.36-9.99-33.7-16.25-70.11-18.59-108.2-2.32-37.75-.82-77.48,4.46-118.09,5.28-40.62,14.38-82.47,27.05-124.36,12.8-42.31,29.35-85.04,49.19-127.01,41.29-87.34,96.1-170.61,162.91-247.49,44.93-51.7,94.06-98.95,146.03-140.42,50.38-40.2,103.33-74.92,157.38-103.19C655.83,30.52,764.68,1.01,863.91,1h0M863.86,0c-198.9.02-435.42,118.11-618.94,329.29C-28.64,644.1-80.95,1046.57,128.1,1228.23c68.81,59.8,157.31,88.2,254.91,88.2,198.9,0,435.42-118.11,618.94-329.29,273.57-314.81,325.87-717.28,116.83-898.94C1049.96,28.41,961.46,0,863.86,0h0Z"/>
</svg>