<?xml version="1.0" encoding="UTF-8"?>
<svg id="_레이어_1" xmlns="http://www.w3.org/2000/svg" viewBox="0 0 2599.29 826.5">
  <defs>
    <style>
      .cls-1 {
        fill: #fff;
      }
    </style>
  </defs>
  <path class="cls-1" d="M454.2,504.24c29.08-63.66,41.53-105.35,37.34-125.08-2.31-10.86-8.57-15.21-18.76-13.04-13.71,2.92-33.36,20.16-58.97,51.72-25.61,31.57-37.31,52.53-35.1,62.89.36,1.67,1.27,2.7,2.75,3.08l37.36-48.56c24.34-31.73,40.36-48.42,48.05-50.05,3.01-.64,4.87.71,5.58,4.05,1.67,7.86-8.38,37.2-30.15,88.04-21.77,50.84-48.62,101.84-80.53,153-32.15,51.74-55.97,86.76-71.46,105.08-16.19,19.17-30.64,30.1-43.34,32.8-14.04,2.99-22.84-3.88-26.39-20.59-5.37-25.24,2.37-62.35,23.22-111.33,12.37-29.71,32.75-69.77,61.15-120.18,22.69-40.29,33.67-62.28,32.92-65.96-.53-2.51-2.47-5.02-5.8-7.55-3.33-2.52-6.25-3.52-8.76-2.98-2.01.43-4.78,2.59-8.32,6.49-10.21,14.4-17.54,25.57-21.96,33.5-41.85,66.9-82.2,127.72-121.05,182.45-68.37,96.65-114.08,147.43-137.15,152.33-8.36,1.78-13.54-2.03-15.53-11.42-7.58-36.09,47.17-137.16,164.25-303.22,22.59-31.88,32.63-53.67,30.15-65.37-1.63-7.69-6.97-10.57-15.99-8.65-20.9,4.44-47.92,20.32-81.06,47.64-29,23.82-51.92,46.68-68.74,68.6-20.52,26.73-29.79,44.77-27.8,54.13,2.21,10.37,8.57,14.42,19.1,12.18,5.85-1.24,16.14-7.45,30.89-18.62,14.74-11.17,21.71-18.68,20.89-22.52-.67-3.17-2.5-4.36-5.47-3.55l-17.07,14.64c-8.26,7.17-13.98,11.1-17.15,11.77-2.51.53-3.97-.2-4.4-2.21-2.03-9.53,17.91-34.9,59.8-76.13,41.46-40.79,68.71-62.57,81.75-65.34,2.67-.57,4.24.24,4.7,2.41.29,1.34-17.57,25.4-53.57,72.19-43.03,55.62-75.58,102.99-97.66,142.1C8.51,721.76-4.93,766.55,1.61,797.3c2.24,10.53,7.41,18.43,15.52,23.69,8.1,5.26,17.51,6.76,28.21,4.48,25.57-5.44,60.94-40.38,106.1-104.85l82.37-130.2c-13.36,31.67-22.28,55.84-26.77,72.52-7.96,29.12-9.64,54.46-5.06,76.02,6.86,32.26,23.58,45.56,50.15,39.91,21.73-4.62,43.69-20.04,65.9-46.25,21.51-25.36,45.66-60.46,72.47-105.29,21.51-36.02,42.75-77.05,63.7-123.09h0Z"/>
  <path class="cls-1" d="M913.11,494.17c-1.31-6.18-4.9-8.65-10.75-7.41-10.2,2.17-20.59,13.68-31.17,34.54-10.59,20.86-14.73,36.72-12.42,47.58,1.21,5.68,4.51,8.48,9.9,8.38-23,38.08-40.18,58.33-51.54,60.75-4.85,1.03-7.82-1.04-8.92-6.22-2.1-9.86,5.5-30.82,22.79-62.89,17.29-32.06,25.28-51.19,23.96-57.38-2.03-9.53-7.8-13.28-17.33-11.25-5.52,1.17-12.7,8.46-21.56,21.85-25.01,33.57-44.27,58.41-57.78,74.54-29.7,36.14-49.18,57.46-58.46,63.96-7.3,5.1-13.61,8.78-18.98,11.08-3.06-.16-4.87-1.48-5.4-3.98-1.05-4.93,8.06-25.11,27.35-60.54,19.28-35.43,28.3-56.07,27.05-61.93-.96-4.53-4.2-6.21-9.72-5.04-2.51.53-6.36,4.6-11.56,12.19-4.17-12.24-12.53-17.02-25.07-14.36-16.88,3.59-35.45,16.1-55.7,37.53l-43.1,52.4-26.96,32.2c-23.12,27.63-42.27,44.37-57.45,50.22h0c-5.94.85-10.23,1.07-12.84.65-6.63-1.37-10.85-6.36-12.69-15-1.23-5.81-1.25-11.62-.04-17.43,20.16-11.97,39.22-26.68,57.17-44.13,24.51-23.56,35.19-42.77,32.03-57.65-2.42-11.36-10.31-15.62-23.68-12.78-18.05,3.84-37.53,19.43-58.45,46.76-19.73,25.51-31.47,48.36-35.21,68.55-12.24,5.73-27.31,16.57-45.23,32.54-16.25,14.75-29.3,24.03-39.15,27.86-4.2,1.61-5.97,3.96-5.31,7.06.48,2.24,1.72,3.14,3.72,2.71,10.53-2.24,24.75-11.38,42.65-27.41,20.22-18.28,34.29-29.31,42.23-33.09-.07,5.43.36,10.32,1.28,14.66,4.02,18.89,16.93,26.01,38.75,21.37,19.76-4.2,29.64-8.36,29.64-12.46,16.31-10.73,38-32.35,65.08-64.91-1.78,10.53-1.81,19.81-.1,27.85,3.1,14.57,11.83,20.32,26.21,17.27,9.03-1.92,19.93-10.19,32.72-24.82l25.48-32.99c-5.93,16.49-8.05,28.67-6.38,36.54,2.1,9.88,8.75,13.63,19.95,11.25,10.03-2.13,15.35-4.66,15.95-7.59,9.84-5.96,21.07-15.5,33.68-28.64l38.95-46.02c23.22-28,41.4-51.34,54.55-70.04l-25.88,50.84c-10.18,22.78-13.88,40.69-11.11,53.72,3.24,15.21,11.87,21.32,25.91,18.33,17.88-3.8,40.49-27.3,67.81-70.5,26.89-42.75,38.6-72.32,35.12-88.7v-.02ZM498.52,614.31c14.45-24.04,27.11-37.21,37.98-39.52,3.67-.78,5.94.83,6.79,4.84,2.1,9.86-6.43,25.65-25.57,47.36-14.31,16.5-28.36,30.14-42.13,40.93,2.44-13.97,10.08-31.84,22.92-53.62h.01ZM663.65,622.72c-25.19,35.56-42.55,54.36-52.08,56.38-4.35.92-7-.87-7.96-5.4-2.1-9.88,9.17-32.86,33.82-68.92s41.9-55.14,51.77-57.24c4.85-1.03,7.86,1.22,9.03,6.75,2.14,10.05-9.39,32.86-34.58,68.42h0ZM868.57,564.44c-1.28-6.02,2.15-17.62,10.28-34.81,8.14-17.19,14.71-26.32,19.72-27.39l2.43,1.58c1.07,5.01-2.14,15.83-9.61,32.44-6.2,13.55-11.87,24.28-17,32.18-3.32,0-5.26-1.32-5.83-4h.01Z"/>
  <path class="cls-1" d="M1147.27,439.91c2.68-7.91,3.71-13.37,3.07-16.38-.75-3.51-3.04-4.85-6.89-4.04-4.01.85-10.39,7.23-19.12,19.13-8.74,11.91-12.62,20.11-11.67,24.62.25,1.17,1.38,4.42,3.39,9.76-9.99,17.11-24.82,38.13-44.5,63.05-22.12,28.23-39.31,46.79-51.58,55.67-8.14,6.09-14.86,10.22-20.16,12.39-.06.03-.11.05-.17.08-6.24.92-10.72,1.16-13.42.74-6.62-1.37-10.85-6.36-12.69-15-1.24-5.81-1.25-11.62-.04-17.43,20.16-11.97,39.22-26.68,57.17-44.13,24.51-23.56,35.19-42.77,32.03-57.65-2.42-11.36-10.31-15.62-23.68-12.78-18.05,3.84-37.53,19.43-58.45,46.76-19.73,25.51-31.47,48.36-35.21,68.55-12.24,5.73-27.31,16.57-45.23,32.54-16.26,14.75-29.3,24.03-39.15,27.86-4.2,1.61-5.97,3.96-5.31,7.06.48,2.24,1.72,3.14,3.72,2.71,10.53-2.24,24.75-11.38,42.65-27.41,20.22-18.28,34.29-29.31,42.23-33.09-.07,5.43.36,10.32,1.28,14.67,4.02,18.89,16.93,26.01,38.75,21.37,18.98-4.04,28.85-8.03,29.6-11.97,27.38-16.99,66.64-62.66,117.77-137.03,1.08-1.45,4.89-3.88,11.45-7.28,6.56-3.4,11.08-5.37,13.56-5.9,2.82-.6,4.49.35,5.03,2.86.25,1.17-4.49,9.17-14.22,23.99-11.96,18.27-20.68,33.31-26.18,45.14-8.88,18.83-12.16,33.68-9.85,44.55,2.35,11.03,9.7,15.23,22.07,12.6,9.69-2.06,14.18-4.81,13.44-8.25-.58-2.74-2.03-3.87-4.33-3.38l-8.1,1.98c-3.2.33-5.12-1-5.76-4-.67-3.17,8.39-20.31,27.19-51.42s26.94-52.59,24.42-64.43c-3.19-15.01-14.23-20.51-33.12-16.5h.01ZM997.28,508.24c14.45-24.04,27.11-37.21,37.98-39.52,3.67-.78,5.94.83,6.79,4.84,2.1,9.86-6.43,25.65-25.56,47.36-14.31,16.5-28.36,30.14-42.13,40.93,2.44-13.97,10.08-31.84,22.92-53.62h0Z"/>
  <path class="cls-1" d="M1698.36,159.52c-4.52-21.25-18.21-34.69-41.07-40.33-17.35-4.36-37.89-4.01-61.62,1.04-37.27,7.93-82.69,25.62-136.24,53.08-54.02,27.74-79.58,48.46-76.66,62.16,1.49,7.02,5,9.94,10.52,8.77,2.17-.46,4.94-1.84,8.31-4.12,51.63-35.26,105.37-63.03,161.24-83.29-21,32.82-36.4,58.23-46.21,76.24l-61.74,106.83-37.81,6.21c-8.78,1.52-12.52,5.37-11.2,11.55,1.35,6.35,12.76,8.91,34.23,7.66-53.35,99.39-79.42,151.94-78.21,157.62.5,2.34,2.92,4.79,7.27,7.36s7.6,3.62,9.75,3.17c2.34-.5,17.69-27.35,46.06-80.55l49.23-92.75c54-11.48,104.3-33.81,150.89-66.99,58.86-42.08,83.28-86.63,73.28-133.65h-.02ZM1492.38,329.83l50.88-87.47c30.39-53.53,45.09-82.64,44.09-87.33-.32-1.5-1.21-3.24-2.68-5.2,11.48-3.49,20.65-5.96,27.51-7.42,46.46-9.88,72.21-3.02,77.23,20.58,2.96,13.89-1.71,31.42-13.98,52.58-14.87,25.39-42.03,49.27-81.48,71.66-31.96,18.17-65.81,32.37-101.56,42.6h0Z"/>
  <path class="cls-1" d="M1767.64,326.58c-2.59-12.2-9.56-17.1-20.89-14.69-7.5,1.6-15.3,7.1-23.4,16.51-6.06-3.6-11.19-4.96-15.41-4.06-2.84.6-9.43,7.85-19.75,21.72l-54.64,68.37c-23.49,28.36-40.78,47.29-51.86,56.8-6.33,5.53-14.4,10.3-24.21,14.3-3.19,1.4-4.45,3.73-3.75,7,.44,2.06,1.66,2.88,3.67,2.46,13.04-2.77,30.81-16.16,53.3-40.16l43.27-50.35c-6.64,22.2-8.96,37.98-6.96,47.34,3.8,17.89,14.23,25.01,31.28,21.39,18.22-3.87,38.74-24.83,61.57-62.88,22.4-37.61,31.66-65.52,27.79-83.74h-.01ZM1686.3,454.2c-7.69,1.64-12.39-1.57-14.1-9.62-3.99-18.77,7.89-46.7,35.64-83.8-.41,4.64-.21,8.88.61,12.73,3.13,14.73,12.07,22.27,26.83,22.63-20.11,36.04-36.44,55.39-48.97,58.05h-.01ZM1718.78,372.81c-1.78-8.39.36-18.63,6.44-30.71s13.21-19,21.4-20.74c5.52-1.17,8.95,1.43,10.31,7.81,1.46,6.88,0,16.85-4.39,29.88-4.04,11.39-8.53,20.68-13.46,27.87-11.53,0-18.3-4.71-20.3-14.11h0Z"/>
  <path class="cls-1" d="M2457.65,106.19c7.35-1.56,14.33-5.32,20.93-11.26,7.66-6.69,10.76-13.47,9.3-20.32-2.03-9.53-7.39-13.37-16.08-11.52-7.36,1.56-14.18,5.64-20.46,12.21-7.02,7.26-9.8,14.31-8.34,21.17,1.74,8.19,6.62,11.43,14.65,9.72h0Z"/>
  <path class="cls-1" d="M2598.44,149.89c-2.59-12.2-9.56-17.1-20.89-14.69-7.5,1.6-15.3,7.1-23.4,16.51-6.06-3.6-11.19-4.96-15.41-4.06-2.84.6-9.43,7.85-19.75,21.72l-54.64,68.37c-23.49,28.36-40.78,47.29-51.86,56.8-5.82,5.08-13.12,9.51-21.87,13.3-3.99-.26-6.29-1.78-6.88-4.57-1.17-5.5,8.42-26.5,28.79-63,20.36-36.5,29.8-58.25,28.31-65.26-1.38-6.5-4.92-9.15-10.6-7.94-5.68,1.21-10.07,2.75-13.17,4.63l-63.04,80.62c-29.34,35.36-48.8,57.2-58.39,65.51-7.23,6.32-15.57,11.53-24.98,15.66-2.85-.48-4.52-1.84-5-4.08-1.85-8.72,1.57-25.04,10.26-48.96,8.3-23.31,16.04-39.06,23.2-47.24,30.94-35.05,58.92-70.45,83.96-106.17,39.57-56.8,57.12-95.74,52.64-116.8-1.74-8.19-6.46-11.47-14.15-9.83-16.55,3.52-43.9,34.69-82.05,93.51-34.34,52.94-59.99,100.71-76.96,143.31-17.93,21.65-35.1,41.56-51.5,59.73-22.38,25.39-38.46,42.19-48.24,50.39-5.15,4.42-10.03,7.93-14.65,10.55,2.52-14.94,2.75-27.34.65-37.18-3.02-14.2-10.45-19.96-22.28-17.27l76.39-138.62,37.77-65.16,32.04-56.34c2.14-5.52,2.77-10.37,1.88-14.55-1.31-6.18-5.07-8.62-11.25-7.3-5.35,1.14-11.58,7.97-18.7,20.49-55.57,97.7-93.88,161.52-114.93,191.48-15.56,22.16-35.78,48.63-60.68,79.41-30.38,37.88-51.56,61.06-63.56,69.55-6.8,5.14-13.22,9.06-19.25,11.77-3.16-.25-5.06-1.87-5.7-4.89-1.88-8.84,9.93-39.96,35.44-93.35l41.06-81.73,37.84-9.36c18.3-5.11,27.1-9.34,26.39-12.69-.64-3.01-4.81-3.69-12.49-2.06-11.53,2.45-25.95,6.13-43.25,11.03,22.31-44.58,32.74-70.29,31.29-77.14-1.35-6.35-4.53-8.99-9.55-7.93-4.01.85-13.21,14.69-27.6,41.51l-26.73,50.5c-9.11,3.16-25.14,7.88-48.09,14.16-20.61,5.78-36.48,10.82-47.62,15.11-7.94,2.91-11.68,5.46-11.22,7.63.57,2.68,3.36,3.48,8.37,2.41l89.51-22.71c-11.88,23.81-23.15,43.12-33.8,57.94-5.94,8.24-20.83,26.5-44.69,54.77-32.19,38.41-53.25,61.73-63.21,69.96-10.23,6.92-18.05,11.59-23.47,14.03-1.48-.55-2.44-1.78-2.85-3.72-.67-3.17,8.39-20.31,27.19-51.42s26.94-52.59,24.42-64.43c-3.19-15.01-14.24-20.51-33.12-16.5,2.68-7.91,3.71-13.37,3.07-16.38-.75-3.51-3.04-4.85-6.89-4.04-4.01.85-10.38,7.23-19.12,19.13-8.74,11.91-12.62,20.11-11.67,24.62.25,1.17,1.38,4.42,3.39,9.76-9.99,17.11-24.82,38.13-44.5,63.05-22.12,28.23-39.31,46.79-51.58,55.67-8.14,6.09-14.86,10.22-20.16,12.39-4.33,1.82-6.18,4.19-5.56,7.11.48,2.24,1.72,3.14,3.72,2.71,27.08-5.76,71.64-53.76,133.68-143.99,1.08-1.45,4.89-3.88,11.45-7.28,6.56-3.4,11.08-5.37,13.56-5.9,2.82-.6,4.49.35,5.03,2.86.25,1.17-4.49,9.17-14.22,23.99-11.96,18.27-20.68,33.31-26.18,45.14-8.88,18.83-12.16,33.68-9.85,44.55,2.35,11.03,9.7,15.23,22.07,12.6,8.46-1.8,12.95-4.12,13.47-6.97,13.67-8.2,29.58-23.23,47.73-45.09l61.79-74.2-14.03,41.24c-5.93,19.78-7.88,34.43-5.85,43.96,2.56,12.03,11.27,16.47,26.15,13.31,6.39-1.36,9.74-3.37,10.05-6.01,14.83-8.94,32.31-25.95,52.44-51.04l69.92-87.72-59.24,118.2c-28.17,58.93-44.47,99.34-48.9,121.25-2.78,14.04-3.3,25.16-1.55,33.35,1.53,7.18,4.95,13.01,10.27,17.47,5.32,4.46,11.48,5.94,18.5,4.45,23.23-4.94,48.57-38.99,76.02-102.12,14.15-32.71,23.73-60.38,28.74-83.01,14.53-6.9,33.23-22.36,56.1-46.41l52.01-59.8c-7.35,29.52-9.57,51.13-6.65,64.83,2.99,14.04,11.38,19.59,25.19,16.65,8.16-1.73,12.21-4.07,12.17-7.01,16.36-10.2,36.82-30.63,61.4-61.31l56.55-70.46c-27.78,52.55-40.18,85.85-37.19,99.89,2.56,12.04,10.15,16.71,22.78,14.02,10.15-2.16,15.35-4.69,15.65-7.6,10.52-6.67,22.97-17.67,37.36-33.02l43.27-50.35c-6.64,22.2-8.96,37.98-6.96,47.34,3.8,17.89,14.23,25.01,31.28,21.39,18.22-3.87,38.74-24.84,61.57-62.88,22.4-37.61,31.66-65.52,27.79-83.74h0ZM2360.38,101.53c34.22-60.6,54.59-91.6,61.1-92.99,3-.64,4.79.38,5.36,3.06,5.66,26.6-36.66,95.92-126.95,207.97,7.81-20.71,27.97-60.06,60.49-118.04h0ZM2113.33,328.79c3.43-10.16,7.9-15.83,13.42-17,6.18-1.31,10.11,1.96,11.78,9.81,2.36,11.1,1.56,25.11-2.4,42.01-.33.21-.65.41-.94.62l-3.42.73c-11.7,2.49-18.72-1.78-21.07-12.81-1.31-6.18-.44-13.97,2.63-23.36ZM2098.35,469.03c-21.89,46.58-40.52,71.51-55.9,74.78-6.52,1.39-10.56-1.6-12.12-8.95-4.2-19.72,19.4-80.47,70.78-182.24,3.66,17.22,14.8,24.01,33.43,20.41-6.45,26.35-18.51,58.35-36.18,96.01h-.01ZM2517.09,277.51c-7.69,1.63-12.39-1.57-14.1-9.62-3.99-18.77,7.89-46.7,35.64-83.8-.41,4.64-.21,8.88.61,12.73,3.13,14.73,12.07,22.27,26.83,22.63-20.11,36.04-36.44,55.39-48.97,58.05h-.01ZM2583.33,182.35c-4.04,11.39-8.53,20.68-13.46,27.87-11.53,0-18.3-4.71-20.29-14.11-1.78-8.39.36-18.63,6.44-30.71,6.08-12.08,13.21-19,21.4-20.74,5.52-1.17,8.95,1.43,10.31,7.81,1.46,6.88,0,16.84-4.39,29.88h-.01Z"/>
</svg>