<svg xmlns="http://www.w3.org/2000/svg" xmlns:xlink="http://www.w3.org/1999/xlink" width="418" height="282" viewBox="0 0 418 282">
  <defs>
    <clipPath id="clip-path">
      <path id="패스_44719" data-name="패스 44719" d="M0,30,418,0V252L0,282Z" transform="translate(16849 13767)" fill="#ccc"/>
    </clipPath>
  </defs>
  <g id="그룹_8726" data-name="그룹 8726" transform="translate(-16849 -13767)">
    <path id="패스_44718" data-name="패스 44718" d="M0,30,418,0V252L0,282Z" transform="translate(16849 13767)" fill="#ccc"/>
    <g id="마스크_그룹_155" data-name="마스크 그룹 155" clip-path="url(#clip-path)">
      <g id="그룹_8725" data-name="그룹 8725" transform="translate(17028.389 13848.607)" opacity="0.05">
        <path id="패스_44637" data-name="패스 44637" d="M0,0,64.173,194.39l19.519-57.354L38.5,0Z" transform="translate(0 0)"/>
        <path id="패스_44638" data-name="패스 44638" d="M20.52,68.887l19.118,59.226L59.224,70.892,40.106,11.659Z" transform="translate(116.649 66.279)"/>
        <path id="패스_44639" data-name="패스 44639" d="M55.657,8.83,9.6,144.194H48.1L94.094,8.83Z" transform="translate(54.571 50.195)" fill="#222"/>
        <path id="패스_44640" data-name="패스 44640" d="M90,0,23.358,194.39h38.5L128.441,0Z" transform="translate(132.781 0)" fill="#222"/>
      </g>
    </g>
  </g>
</svg>
