<svg xmlns="http://www.w3.org/2000/svg" xmlns:xlink="http://www.w3.org/1999/xlink" width="282" height="190" viewBox="0 0 282 190">
  <defs>
    <clipPath id="clip-path">
      <path id="패스_44729" data-name="패스 44729" d="M0,20.213,282,0V169.787L0,190Z" fill="#ccc"/>
    </clipPath>
  </defs>
  <g id="그룹_8743" data-name="그룹 8743" transform="translate(-15368 2189)">
    <path id="패스_44728" data-name="패스 44728" d="M0,20.213,282,0V169.787L0,190Z" transform="translate(15368 -2189)" fill="#ccc"/>
    <g id="마스크_그룹_161" data-name="마스크 그룹 161" transform="translate(15368 -2189)" clip-path="url(#clip-path)">
      <g id="그룹_8742" data-name="그룹 8742" transform="translate(121.024 54.984)" opacity="0.05">
        <path id="패스_44637" data-name="패스 44637" d="M0,0,43.293,130.972,56.462,92.329,25.976,0Z" transform="translate(0 0)"/>
        <path id="패스_44638" data-name="패스 44638" d="M20.52,50.217l12.9,39.9L46.631,51.568l-12.9-39.909Z" transform="translate(72.02 40.852)"/>
        <path id="패스_44639" data-name="패스 44639" d="M40.672,8.83,9.6,100.033H35.576L66.6,8.83Z" transform="translate(33.693 30.938)" fill="#222"/>
        <path id="패스_44640" data-name="패스 44640" d="M68.32,0,23.358,130.972H49.334L94.251,0Z" transform="translate(81.98 0)" fill="#222"/>
      </g>
    </g>
  </g>
</svg>
