<?xml version="1.0" encoding="UTF-8"?>
<svg id="_레이어_1" xmlns="http://www.w3.org/2000/svg" viewBox="0 0 1386.45 1175.17">
  <defs>
    <style>
      .cls-1 {
        stroke: #000;
        stroke-miterlimit: 10;
        stroke-width: 3px;
      }
    </style>
  </defs>
  <path class="cls-1" d="M939.66,2.5c42.4,0,83.35,3.8,121.73,11.29,38.71,7.56,75.09,18.93,108.13,33.81,33.64,15.15,64.12,34.06,90.6,56.23,27.18,22.75,50.45,49.18,69.16,78.56,36.27,56.93,54.66,122.87,54.66,195.97,0,35.15-4.35,71.83-12.93,109.02-8.5,36.85-21.23,74.52-37.84,111.96-16.61,37.45-37.23,74.98-61.28,111.55-24.29,36.92-52.3,73.19-83.26,107.8-64.41,72.01-140.63,136.27-226.53,190.99-83.57,53.24-171.56,94.4-261.51,122.34-86.87,26.98-172.26,40.66-253.79,40.66-42.4,0-83.36-3.8-121.74-11.29-38.71-7.56-75.1-18.93-108.14-33.81-33.64-15.15-64.12-34.06-90.6-56.23-27.18-22.75-50.45-49.18-69.17-78.56-36.25-56.94-54.65-122.87-54.65-195.98,0-35.15,4.35-71.83,12.93-109.02,8.5-36.85,21.23-74.52,37.84-111.96,16.61-37.45,37.23-74.98,61.28-111.55,24.29-36.92,52.3-73.19,83.26-107.8,64.41-72.01,140.63-136.27,226.53-190.99,83.57-53.24,171.56-94.4,261.51-122.34C772.73,16.18,858.11,2.5,939.66,2.5h0M939.65,1.5c-160.86,0-344.75,54.16-515.84,163.15C72.05,388.74-92.48,759.74,56.32,993.32c76.42,119.97,220.62,180.35,390.49,180.35,160.86,0,344.75-54.16,515.84-163.15,351.75-224.08,516.28-595.09,367.48-828.67C1253.71,61.88,1109.51,1.5,939.65,1.5h0Z"/>
</svg>