<?xml version="1.0" encoding="UTF-8"?>
<svg id="_레이어_1" data-name="레이어 1" xmlns="http://www.w3.org/2000/svg" viewBox="0 0 3652.2 557">
  <defs>
    <style>
      .cls-1 {
        fill: none;
        stroke: #000;
      }
    </style>
  </defs>
  <path class="cls-1" d="M480.13,546.1l-134.36.03-171.36-238.88-59.29,64.53v174.35H.5V.97h114.62v226.32L323.05.97h132.84l-204.22,222.22,228.46,322.91Z"/>
  <path class="cls-1" d="M894.07,1.24v109.03h-271.8v97.04l226.42.97v109.03l-226.42-.97v121.03h271.8v109.03h-389.76V1.24h389.76Z"/>
  <path class="cls-1" d="M1402.55,1.31l-186.38,327.02v217.8h-114.62v-217.8L915.17,1.31h138.6l104.72,213.26L1263.94,1.31h138.61Z"/>
  <path class="cls-1" d="M1603.29,546.4L1423.15,1.3h114.66l130,393.5L1798.54,1.06h114.66l-180.27,545.27-129.65.06Z"/>
  <path class="cls-1" d="M2185.58,433.71h-200.88l-42.35,112.69h-114.62L2027.8,1.24h126.66l188.15,545.16h-114.62l-42.41-112.69ZM2147.76,333.29l-62.61-166.03-62.75,166.03h125.36Z"/>
  <path class="cls-1" d="M2734.31,437.09v109.04h-387.05V.97h121.02v436.13h266.03Z"/>
  <path class="cls-1" d="M3205.34.5v336.52c0,120.4-66.73,219.48-224.32,219.48s-224.25-99.08-224.25-219.48V.5h106.79v335.34h.04v3.97c0,85.75,63.75,109.33,117.26,109.33s117.26-23.58,117.26-109.59v-3.72h.05V.5h107.17Z"/>
  <path class="cls-1" d="M3651.7,1.24v109.03h-271.8v97.04l226.42.97v109.03l-226.42-.97v121.03h271.8v109.03h-389.76V1.24h389.76Z"/>
</svg>