<?xml version="1.0" encoding="UTF-8"?>
<svg id="_레이어_1" data-name="레이어 1" xmlns="http://www.w3.org/2000/svg" viewBox="0 0 129.33 825">
  <defs>
    <style>
      .cls-1 {
        fill: none;
        stroke: #000;
      }
    </style>
  </defs>
  <path class="cls-1" d="M2.9,108.67v-30.3s55.13-38.65,55.13-38.65l-14.89-13.37H2.89V.5h125.83v25.85h-52.24l52.24,46.9v29.96l-51.3-46.06L2.9,108.67Z"/>
  <path class="cls-1" d="M128.66,202.07h-25.17v-61.3h-22.4l-.22,51.07h-25.17l.22-51.07h-27.93v61.3H2.83v-87.91h125.83v87.91Z"/>
  <path class="cls-1" d="M128.65,316.78l-75.49-42.04H2.89v-25.85h50.27l75.49-42.04v31.26l-49.23,23.62,49.23,23.78v31.26Z"/>
  <path class="cls-1" d="M2.83,362.38l125.82-40.63v25.86l-90.83,29.32,90.89,29.48v25.86L2.84,391.62v-29.24Z"/>
  <path class="cls-1" d="M28.84,493.74v-45.31l-26.01-9.55v-25.85l125.83,45.12v28.57L2.83,529.16v-25.85l26.01-9.56ZM52.02,485.21l38.33-14.12-38.33-14.15v28.27Z"/>
  <path class="cls-1" d="M28.06,617.53H2.89v-87.29h125.83v27.29H28.06v60Z"/>
  <path class="cls-1" d="M128.83,723.8H51.16c-27.79,0-50.66-15.05-50.66-50.59s22.87-50.57,50.66-50.57h77.68v24.08H51.43s-.91,0-.91,0c-19.79,0-25.24,14.38-25.24,26.45s5.44,26.45,25.29,26.45h.86s77.4,0,77.4,0v24.17Z"/>
  <path class="cls-1" d="M128.66,824.5h-25.17v-61.3h-22.4l-.22,51.07h-25.17l.22-51.07h-27.93v61.3H2.83v-87.91h125.83v87.91Z"/>
</svg>