<svg xmlns="http://www.w3.org/2000/svg" xmlns:xlink="http://www.w3.org/1999/xlink" width="141" height="95" viewBox="0 0 141 95">
  <defs>
    <clipPath id="clip-path">
      <path id="패스_44721" data-name="패스 44721" d="M0,10.106,141,0V84.894L0,95Z" transform="translate(0)" fill="#686868"/>
    </clipPath>
  </defs>
  <g id="그룹_8737" data-name="그룹 8737" transform="translate(-22616 -12902.001)">
    <path id="패스_44720" data-name="패스 44720" d="M0,10.106,141,0V84.894L0,95Z" transform="translate(22616 12902.001)" fill="#686868"/>
    <g id="마스크_그룹_158" data-name="마스크 그룹 158" transform="translate(22616 12902.001)" clip-path="url(#clip-path)">
      <g id="그룹_8736" data-name="그룹 8736" transform="translate(54.25 29.513)" opacity="0.08">
        <path id="패스_44304" data-name="패스 44304" d="M0,0,24.355,65.486H39.343L14.988,0Z" transform="translate(0 0)" fill="#fff"/>
        <path id="패스_44305" data-name="패스 44305" d="M43.4,20,26,66.776H40.989L58.385,20Z" transform="translate(-1.645 -1.289)" fill="#fff"/>
        <path id="패스_44306" data-name="패스 44306" d="M54.786,44.957l8.23,22.129H78L62.28,24.807Z" transform="translate(-3.466 -1.599)" fill="#fff"/>
        <path id="패스_44307" data-name="패스 44307" d="M87.927,0,63.572,65.486H78.559L102.915,0Z" transform="translate(-4.021 0)" fill="#fff"/>
      </g>
    </g>
  </g>
</svg>
