<svg xmlns="http://www.w3.org/2000/svg" xmlns:xlink="http://www.w3.org/1999/xlink" width="418" height="282" viewBox="0 0 418 282">
  <defs>
    <clipPath id="clip-path">
      <path id="패스_44717" data-name="패스 44717" d="M0,0,418,30V282L0,252Z" transform="translate(17212 12937.607)" fill="#fff"/>
    </clipPath>
  </defs>
  <g id="그룹_8724" data-name="그룹 8724" transform="translate(-17209 -12785.607)">
    <path id="패스_44716" data-name="패스 44716" d="M0,0,418,30V282L0,252Z" transform="translate(17209 12785.607)" fill="#fff"/>
    <g id="마스크_그룹_154" data-name="마스크 그룹 154" transform="translate(-3 -152)" clip-path="url(#clip-path)">
      <g id="그룹_8723" data-name="그룹 8723" transform="translate(17400.389 13035.215)" opacity="0.05">
        <path id="패스_44637" data-name="패스 44637" d="M0,0,64.173,194.39l19.519-57.354L38.5,0Z" transform="translate(0 0)"/>
        <path id="패스_44638" data-name="패스 44638" d="M20.52,68.887l19.118,59.226L59.224,70.892,40.106,11.659Z" transform="translate(116.649 66.279)"/>
        <path id="패스_44639" data-name="패스 44639" d="M55.657,8.83,9.6,144.194H48.1L94.094,8.83Z" transform="translate(54.571 50.195)" fill="#222"/>
        <path id="패스_44640" data-name="패스 44640" d="M90,0,23.358,194.39h38.5L128.441,0Z" transform="translate(132.781 0)" fill="#222"/>
      </g>
    </g>
  </g>
</svg>
