<svg xmlns="http://www.w3.org/2000/svg" xmlns:xlink="http://www.w3.org/1999/xlink" width="141" height="95" viewBox="0 0 141 95">
  <defs>
    <clipPath id="clip-path">
      <path id="패스_44723" data-name="패스 44723" d="M0,0,141,10.106V95L0,84.894Z" transform="translate(0)"/>
    </clipPath>
  </defs>
  <g id="그룹_8739" data-name="그룹 8739" transform="translate(-22226 -13353.501)">
    <path id="패스_44722" data-name="패스 44722" d="M0,0,141,10.106V95L0,84.894Z" transform="translate(22226 13353.501)"/>
    <g id="마스크_그룹_159" data-name="마스크 그룹 159" transform="translate(22226 13353.501)" clip-path="url(#clip-path)">
      <g id="그룹_8738" data-name="그룹 8738" transform="translate(55.123 32.882)" opacity="0.12">
        <path id="패스_44304" data-name="패스 44304" d="M0,0,24.355,65.486H39.343L14.988,0Z" transform="translate(0 0)" fill="#fff"/>
        <path id="패스_44305" data-name="패스 44305" d="M43.4,20,26,66.776H40.989L58.385,20Z" transform="translate(-1.645 -1.289)" fill="#fff"/>
        <path id="패스_44306" data-name="패스 44306" d="M54.786,44.957l8.23,22.129H78L62.28,24.807Z" transform="translate(-3.466 -1.599)" fill="#fff"/>
        <path id="패스_44307" data-name="패스 44307" d="M87.927,0,63.572,65.486H78.559L102.915,0Z" transform="translate(-4.021 0)" fill="#fff"/>
      </g>
    </g>
  </g>
</svg>
